<svg xmlns="http://www.w3.org/2000/svg" width="256" height="256" viewBox="0 0 256 256" fill="none">
<defs>
<linearGradient id="g" x1="32" y1="18" x2="220" y2="238"><stop stop-color="#FFE8A3"/><stop offset=".48" stop-color="#D6B15F"/><stop offset="1" stop-color="#8B5E24"/></linearGradient>
<filter id="s" x="-30%" y="-30%" width="160%" height="160%"><feDropShadow dx="0" dy="4" stdDeviation="4" flood-color="#000" flood-opacity=".55"/></filter>
</defs>
<g fill="url(#g)" filter="url(#s)">
<path d="M48 190h160c9 0 16 7 16 16s-7 16-16 16H48c-9 0-16-7-16-16s7-16 16-16Z"/>
<path d="M54 174l18-90 38 40 20-78c2-9 14-9 16 0l20 78 38-40 18 90H54Z"/>
<circle cx="72" cy="76" r="18"/><circle cx="128" cy="40" r="18"/><circle cx="184" cy="76" r="18"/>
</g>
</svg>