<svg xmlns="http://www.w3.org/2000/svg" width="256" height="256" viewBox="0 0 256 256" fill="none">
<defs>
<linearGradient id="g" x1="32" y1="18" x2="220" y2="238"><stop stop-color="#FFE8A3"/><stop offset=".48" stop-color="#D6B15F"/><stop offset="1" stop-color="#8B5E24"/></linearGradient>
<filter id="s" x="-30%" y="-30%" width="160%" height="160%"><feDropShadow dx="0" dy="4" stdDeviation="4" flood-color="#000" flood-opacity=".55"/></filter>
</defs>
<g fill="url(#g)" filter="url(#s)">
<path d="M72 36c0-9 7-16 16-16s16 7 16 16v20c21-6 39-5 59 4 14 6 26 7 40 3 7-2 13 3 13 10v93c0 6-4 11-10 12-21 5-39 1-59-7-14-6-28-5-43-1v50c0 9-7 16-16 16s-16-7-16-16V36Z"/>
<path d="M112 86c23-8 42 8 74 1v54c-29 5-49-12-74-3V86Z" fill="#1A120A" opacity=".25"/>
</g>
</svg>