<svg xmlns="http://www.w3.org/2000/svg" width="256" height="256" viewBox="0 0 256 256" fill="none">
<defs>
<linearGradient id="g" x1="32" y1="18" x2="220" y2="238"><stop stop-color="#FFE8A3"/><stop offset=".48" stop-color="#D6B15F"/><stop offset="1" stop-color="#8B5E24"/></linearGradient>
<filter id="s" x="-30%" y="-30%" width="160%" height="160%"><feDropShadow dx="0" dy="4" stdDeviation="4" flood-color="#000" flood-opacity=".55"/></filter>
</defs>
<g fill="url(#g)" filter="url(#s)">
<path d="M76 50l94-25c13-3 26 4 29 17l32 120c3 13-4 26-17 29l-94 25c-13 3-26-4-29-17L59 79c-3-13 4-26 17-29Z"/>
<path d="M44 83h112c13 0 24 11 24 24v102c0 13-11 24-24 24H44c-13 0-24-11-24-24V107c0-13 11-24 24-24Z"/>
<path d="M84 121c18-15 46-4 46 20 0 22-24 31-34 45h32v22H64c0-36 40-43 40-65 0-10-12-13-24-4l-14-17c5-5 11-9 18-12Z" fill="#1A120A" opacity=".28"/>
</g>
</svg>